<?xml version="1.0" encoding="utf-8"?>
<!-- Generator: Adobe Illustrator 15.0.2, SVG Export Plug-In . SVG Version: 6.00 Build 0)  -->
<!DOCTYPE svg PUBLIC "-//W3C//DTD SVG 1.1//EN" "http://www.w3.org/Graphics/SVG/1.1/DTD/svg11.dtd">
<svg version="1.1" id="Layer_1" xmlns="http://www.w3.org/2000/svg" xmlns:xlink="http://www.w3.org/1999/xlink" x="0px" y="0px"
	 width="504px" height="504px" viewBox="0 0 504 504" enable-background="new 0 0 504 504" xml:space="preserve">
<g id="Layer_1_1_">
	<rect width="504" height="504"/>
</g>
<g enable-background="new    ">
	<path fill="#FFFFFF" d="M219.5,223.298v-3.889l4.968-4.824c11.953-11.377,17.426-17.426,17.426-24.482
		c0-4.752-2.232-9.145-9.217-9.145c-4.249,0-7.777,2.16-9.937,3.961l-2.016-4.465c3.168-2.664,7.849-4.752,13.177-4.752
		c10.081,0,14.329,6.912,14.329,13.608c0,8.642-6.265,15.626-16.129,25.131l-3.672,3.456v0.144h20.954v5.257H219.5z"/>
	<path fill="#FFFFFF" d="M254.059,188.735l4.536-4.177c5.977-5.473,9.073-8.856,9.073-12.529c0-2.736-1.729-4.969-5.473-4.969
		c-2.521,0-4.681,1.225-6.049,2.232l-1.512-3.313c1.943-1.584,5.184-2.952,8.856-2.952c6.769,0,9.505,4.249,9.505,8.065
		c0,5.4-4.104,9.36-9.576,14.185l-2.16,2.017v0.144h12.24v3.961h-19.441V188.735z"/>
</g>
<g enable-background="new    ">
	<path fill="#FFFFFF" d="M144.623,302.064c2.809,1.801,6.841,3.168,11.161,3.168c6.409,0,10.153-3.384,10.153-8.28
		c0-4.465-2.592-7.129-9.145-9.577c-7.921-2.88-12.817-7.057-12.817-13.825c0-7.561,6.265-13.177,15.697-13.177
		c4.896,0,8.569,1.152,10.657,2.376l-1.728,5.112c-1.512-0.936-4.752-2.304-9.145-2.304c-6.625,0-9.145,3.96-9.145,7.272
		c0,4.536,2.952,6.769,9.648,9.36c8.209,3.169,12.313,7.129,12.313,14.258c0,7.488-5.472,14.041-16.921,14.041
		c-4.68,0-9.792-1.44-12.385-3.168L144.623,302.064z"/>
	<path fill="#FFFFFF" d="M188.112,266.493v8.354h9.073v4.824h-9.073v18.793c0,4.321,1.224,6.769,4.752,6.769
		c1.728,0,2.736-0.144,3.672-0.432l0.288,4.824c-1.224,0.433-3.168,0.864-5.617,0.864c-2.952,0-5.329-1.008-6.84-2.664
		c-1.729-1.944-2.448-5.04-2.448-9.145v-19.01h-5.401v-4.824h5.401v-6.481L188.112,266.493z"/>
	<path fill="#FFFFFF" d="M233.474,300.12c0,3.673,0.072,6.841,0.288,9.577h-5.617l-0.36-5.688h-0.144
		c-1.584,2.809-5.329,6.48-11.521,6.48c-5.473,0-12.025-3.097-12.025-15.266v-20.377h6.336v19.226c0,6.624,2.088,11.16,7.777,11.16
		c4.248,0,7.201-2.952,8.353-5.832c0.36-0.864,0.576-2.017,0.576-3.24v-21.313h6.336V300.12z"/>
	<path fill="#FFFFFF" d="M274.01,258.573v42.123c0,3.097,0.145,6.625,0.288,9.001h-5.616l-0.289-6.049h-0.215
		c-1.873,3.889-6.049,6.841-11.738,6.841c-8.424,0-14.977-7.129-14.977-17.714c-0.072-11.593,7.201-18.649,15.625-18.649
		c5.4,0,8.93,2.521,10.514,5.257h0.144v-20.81H274.01z M267.745,289.031c0-0.792-0.072-1.872-0.288-2.664
		c-0.936-3.96-4.393-7.272-9.145-7.272c-6.553,0-10.441,5.761-10.441,13.393c0,7.057,3.528,12.89,10.296,12.89
		c4.248,0,8.137-2.88,9.289-7.561c0.216-0.864,0.288-1.729,0.288-2.736V289.031z"/>
	<path fill="#FFFFFF" d="M291.646,265.054c0,2.16-1.512,3.888-4.031,3.888c-2.305,0-3.816-1.728-3.816-3.888s1.584-3.961,3.96-3.961
		C290.063,261.093,291.646,262.821,291.646,265.054z M284.59,309.697v-34.851h6.337v34.851H284.59z"/>
	<path fill="#FFFFFF" d="M332.977,291.983c0,12.89-9,18.506-17.354,18.506c-9.36,0-16.705-6.912-16.705-17.93
		c0-11.593,7.705-18.434,17.281-18.434C326.208,274.126,332.977,281.398,332.977,291.983z M305.398,292.344
		c0,7.633,4.32,13.394,10.513,13.394c6.049,0,10.585-5.688,10.585-13.537c0-5.905-2.952-13.321-10.441-13.321
		C308.639,278.879,305.398,285.791,305.398,292.344z"/>
	<path fill="#FFFFFF" d="M340.102,303.289c1.944,1.151,5.257,2.448,8.425,2.448c4.536,0,6.696-2.232,6.696-5.185
		c0-3.024-1.8-4.608-6.408-6.337c-6.336-2.304-9.289-5.688-9.289-9.864c0-5.617,4.609-10.226,12.025-10.226
		c3.528,0,6.625,0.937,8.496,2.16l-1.512,4.608c-1.367-0.864-3.889-2.088-7.129-2.088c-3.744,0-5.76,2.16-5.76,4.752
		c0,2.881,2.016,4.177,6.553,5.977c5.977,2.232,9.145,5.257,9.145,10.441c0,6.192-4.824,10.513-12.961,10.513
		c-3.816,0-7.345-1.008-9.793-2.448L340.102,303.289z"/>
</g>
</svg>
